<?xml version="1.0" encoding="iso-8859-1"?>
<!-- Generator: Adobe Illustrator 19.0.0, SVG Export Plug-In . SVG Version: 6.00 Build 0)  -->
<!-- License: CC0. Made by SVG Repo: https://www.svgrepo.com/svg/128214/sushi -->
<svg version="1.1" id="Layer_1" xmlns="http://www.w3.org/2000/svg" xmlns:xlink="http://www.w3.org/1999/xlink" x="0px" y="0px"
	 viewBox="0 0 512 512" style="enable-background:new 0 0 512 512;" xml:space="preserve" width="96px" height="96px">
<path style="fill:#E0A03D;" d="M158.699,465.967H49.159c-22.952,0-41.557-18.606-41.557-41.557V168.984
	c0-22.951,18.606-41.557,41.557-41.557h413.681c22.952,0,41.557,18.606,41.557,41.557V424.41c0,22.952-18.606,41.557-41.557,41.557
	H178.973"/>
<circle style="fill:#B7364A;" cx="271.643" cy="360.586" r="56.001"/>
<circle style="fill:#F6E088;" cx="271.643" cy="360.586" r="20.264"/>
<circle style="fill:#B7364A;" cx="416.131" cy="360.586" r="56.001"/>
<circle style="fill:#F6E088;" cx="416.131" cy="360.586" r="20.264"/>
<path style="fill:#60A771;" d="M256.418,224.452c0-26.315,21.333-47.648,47.649-47.648h79.646c26.316,0,47.649,21.333,47.649,47.648
	l0,0c0,26.315-21.333,47.648-47.649,47.648h-79.646C277.75,272.1,256.418,250.767,256.418,224.452L256.418,224.452z"/>
<rect x="317.123" y="176.801" style="fill:#386499;" width="53.536" height="95.298"/>
<g>
	<path style="fill:#491E17;" d="M462.841,119.825H184.296l15.601-78.429l-14.911-2.966l-16.191,81.396h-49.272L103.332,38.43
		l-14.911,2.967l15.601,78.429H49.159C22.053,119.826,0,141.878,0,168.985v255.426c0,27.107,22.053,49.159,49.159,49.159h109.54
		v-15.204H49.159c-18.723,0-33.955-15.232-33.955-33.955V319.504h52.034V304.3H15.204v-15.205h72.308v-15.204H15.204V168.984
		c0-18.723,15.232-33.955,33.955-33.955h57.886l29.364,147.616l-25.194,126.66l14.911,2.966l18.034-90.662l18.034,90.662
		l14.911-2.967l-25.195-126.66l29.362-147.615h281.568c18.723,0,33.955,15.232,33.955,33.955V424.41
		c0,18.723-15.232,33.955-33.955,33.955H178.973v15.204h283.867c27.107,0,49.159-22.053,49.159-49.159V168.984
		C512,141.877,489.947,119.825,462.841,119.825z M144.16,243.68l-21.613-108.651h43.225L144.16,243.68z"/>
	<path style="fill:#491E17;" d="M208.043,360.59c0,35.07,28.532,63.601,63.602,63.601s63.601-28.531,63.601-63.601
		s-28.531-63.602-63.601-63.602C236.575,296.988,208.043,325.519,208.043,360.59z M271.645,312.192
		c26.686,0,48.397,21.711,48.397,48.398s-21.711,48.397-48.397,48.397c-26.687,0-48.398-21.71-48.398-48.397
		C223.247,333.903,244.958,312.192,271.645,312.192z"/>
	<path style="fill:#491E17;" d="M271.645,388.457c15.365,0,27.866-12.501,27.866-27.866c0-15.365-12.501-27.866-27.866-27.866
		c-15.365,0-27.866,12.501-27.866,27.866C243.78,375.956,256.28,388.457,271.645,388.457z M271.645,347.928
		c6.983,0,12.662,5.68,12.662,12.662s-5.68,12.662-12.662,12.662c-6.983,0-12.662-5.68-12.662-12.662
		C258.983,353.608,264.663,347.928,271.645,347.928z"/>
	<path style="fill:#491E17;" d="M352.533,360.59c0,35.07,28.531,63.601,63.601,63.601c35.071,0,63.603-28.531,63.603-63.601
		s-28.532-63.602-63.603-63.602C381.064,296.988,352.533,325.519,352.533,360.59z M464.533,360.59
		c0,26.687-21.712,48.397-48.399,48.397c-26.686,0-48.397-21.71-48.397-48.397c0-26.687,21.711-48.398,48.397-48.398
		C442.821,312.192,464.533,333.903,464.533,360.59z"/>
	<path style="fill:#491E17;" d="M388.267,360.59c0,15.365,12.501,27.866,27.866,27.866s27.866-12.501,27.866-27.866
		s-12.501-27.866-27.866-27.866S388.267,345.225,388.267,360.59z M428.796,360.59c0,6.982-5.679,12.662-12.662,12.662
		c-6.983,0-12.662-5.68-12.662-12.662s5.68-12.662,12.662-12.662C423.116,347.928,428.796,353.608,428.796,360.59z"/>
	<path style="fill:#491E17;" d="M383.712,169.202h-5.452h-68.74h-5.454c-30.466,0-55.251,24.785-55.251,55.25
		s24.785,55.25,55.251,55.25h5.454h68.74h5.452c30.466,0,55.251-24.785,55.251-55.25
		C438.963,193.987,414.178,169.202,383.712,169.202z M304.066,264.498c-22.082,0-40.047-17.965-40.047-40.046
		s17.965-40.046,40.047-40.046h5.454v80.092H304.066z M324.724,264.498v-80.092h38.332v80.092H324.724z M383.712,264.498h-5.452
		v-80.092h5.452c22.082,0,40.047,17.965,40.047,40.046C423.759,246.533,405.796,264.498,383.712,264.498z"/>
</g>
</svg>
